<?xml version="1.0" standalone="no"?>
<!DOCTYPE svg PUBLIC "-//W3C//DTD SVG 20010904//EN"
 "http://www.w3.org/TR/2001/REC-SVG-20010904/DTD/svg10.dtd">
<svg version="1.0" xmlns="http://www.w3.org/2000/svg"
 width="700.000000pt" height="700.000000pt" viewBox="0 0 700.000000 700.000000"
 preserveAspectRatio="xMidYMid meet">
<metadata>
Created by potrace 1.11, written by Peter Selinger 2001-2013
</metadata>
<g transform="translate(0.000000,700.000000) scale(0.100000,-0.100000)"
fill="#000000" stroke="none">
<path d="M4459 6404 c-256 -45 -496 -203 -666 -439 -24 -33 -47 -65 -53 -72
-19 -23 -119 -229 -149 -307 -17 -43 -45 -136 -63 -206 l-31 -129 -56 41 c-84
60 -207 139 -317 203 -94 54 -315 165 -329 165 -4 0 -21 7 -38 15 -92 43 -343
117 -442 131 -22 3 -65 9 -95 14 -30 5 -125 8 -210 6 -224 -5 -384 -49 -559
-154 -355 -214 -559 -651 -575 -1229 -1 -35 -1 -63 1 -63 2 0 28 21 59 46 31
25 75 57 98 72 22 15 43 30 44 35 2 4 8 7 14 7 5 0 23 9 38 20 51 36 306 160
407 196 179 66 357 114 483 130 30 3 69 8 85 10 48 6 272 6 302 0 15 -3 48 -8
71 -11 114 -16 275 -84 370 -157 29 -23 55 -44 57 -49 3 -4 -39 -8 -92 -7
-107 0 -178 -6 -263 -23 -537 -105 -1075 -466 -1385 -929 -60 -90 -165 -293
-165 -320 0 -9 -4 -20 -8 -26 -19 -22 -55 -162 -72 -279 -11 -72 -15 -272 -6
-335 35 -268 145 -521 335 -770 61 -80 84 -107 173 -202 l38 -40 1 69 c0 37 2
77 4 88 2 11 6 47 9 80 7 80 33 214 57 300 145 510 476 991 919 1336 215 167
450 301 648 370 l53 18 -5 -57 c-3 -31 -8 -74 -11 -94 -3 -21 -7 -53 -10 -70
-4 -34 -41 -243 -50 -288 -2 -14 -10 -50 -16 -80 -30 -156 -124 -472 -192
-650 -96 -252 -254 -551 -414 -787 -203 -299 -306 -417 -822 -936 -251 -252
-457 -459 -458 -460 -1 -2 391 -3 871 -3 l874 1 28 25 c176 158 336 451 468
855 43 132 102 336 110 380 2 11 11 48 20 82 17 66 53 236 62 293 3 19 10 54
15 78 5 23 11 59 14 80 3 20 8 53 11 72 4 19 8 44 9 55 2 11 8 54 14 95 6 41
13 93 15 115 12 93 17 132 21 165 3 19 8 67 11 105 4 39 7 81 9 95 1 14 6 61
9 105 4 44 9 96 11 115 2 19 7 89 11 155 3 66 8 143 9 170 2 28 6 127 10 220
4 94 8 171 9 172 1 2 38 -15 82 -36 444 -216 825 -888 1004 -1771 12 -58 23
-112 25 -122 2 -9 7 -38 11 -65 3 -26 8 -55 9 -63 7 -43 15 -100 20 -145 14
-130 16 -156 19 -248 3 -54 6 -100 8 -103 2 -2 72 65 154 149 125 127 182 191
277 312 97 124 220 330 271 455 15 36 31 74 36 85 31 68 78 263 87 365 53 550
-187 1031 -733 1468 -59 48 -222 151 -315 201 -215 115 -400 174 -550 175
l-96 1 31 19 c64 40 160 77 259 102 82 21 133 26 257 29 154 4 217 -1 361 -30
87 -17 239 -63 254 -76 5 -5 15 -9 22 -9 32 0 327 -157 398 -212 141 -109 231
-186 323 -278 61 -62 112 -117 112 -121 0 -5 4 -9 8 -9 16 0 0 256 -24 405
-33 207 -109 408 -210 562 -54 81 -196 221 -279 275 -217 140 -456 202 -780
202 -189 1 -299 -7 -425 -28 -47 -8 -101 -17 -120 -20 -19 -3 -52 -10 -72 -15
-49 -12 -49 -2 4 68 90 120 193 225 350 357 142 120 409 251 551 271 21 3 46
6 55 8 9 2 30 4 47 4 26 1 27 3 15 16 -28 27 -180 113 -256 145 -166 69 -354
92 -515 64z"/>
</g>
</svg>
